<svg width="19" height="20" viewBox="0 0 19 20" fill="none" xmlns="http://www.w3.org/2000/svg">
<path d="M9.49999 1.25C10.163 1.25 10.7989 1.51339 11.2678 1.98223C11.7366 2.45107 12 3.08696 12 3.75V6.25H6.99999V3.75C6.99999 3.08696 7.26338 2.45107 7.73222 1.98223C8.20106 1.51339 8.83695 1.25 9.49999 1.25V1.25ZM13.25 6.25V3.75C13.25 2.75544 12.8549 1.80161 12.1516 1.09835C11.4484 0.395088 10.4946 0 9.49999 0C8.50543 0 7.5516 0.395088 6.84834 1.09835C6.14508 1.80161 5.74999 2.75544 5.74999 3.75V6.25H3.69999C3.25108 6.2501 2.81711 6.41125 2.47694 6.70417C2.13677 6.99709 1.91298 7.40233 1.84624 7.84625L0.562491 16.4125C0.495976 16.857 0.526115 17.3106 0.650854 17.7423C0.775592 18.1741 0.991995 18.5739 1.2853 18.9144C1.5786 19.255 1.9419 19.5282 2.35042 19.7155C2.75894 19.9029 3.20306 19.9999 3.65249 20H15.3462C15.7958 20.0001 16.24 19.9032 16.6487 19.7159C17.0574 19.5287 17.4208 19.2554 17.7143 18.9149C18.0077 18.5744 18.2242 18.1745 18.349 17.7426C18.4739 17.3108 18.504 16.8571 18.4375 16.4125L17.1525 7.84625C17.0858 7.40254 16.8622 6.99747 16.5223 6.70458C16.1824 6.41169 15.7487 6.2504 15.3 6.25H13.25ZM12 7.5V9.375C12 9.54076 12.0658 9.69973 12.183 9.81694C12.3003 9.93415 12.4592 10 12.625 10C12.7908 10 12.9497 9.93415 13.0669 9.81694C13.1841 9.69973 13.25 9.54076 13.25 9.375V7.5H15.2987C15.4484 7.50015 15.593 7.55397 15.7063 7.65168C15.8196 7.7494 15.8941 7.88452 15.9162 8.0325L17.2012 16.5963C17.2413 16.863 17.2234 17.1353 17.1487 17.3945C17.0739 17.6537 16.9442 17.8937 16.7682 18.0982C16.5922 18.3026 16.3742 18.4667 16.129 18.5792C15.8838 18.6917 15.6172 18.7499 15.3475 18.75H3.65249C3.38273 18.7499 3.11616 18.6917 2.87098 18.5792C2.6258 18.4667 2.40778 18.3026 2.2318 18.0982C2.05583 17.8937 1.92604 17.6537 1.8513 17.3945C1.77657 17.1353 1.75864 16.863 1.79874 16.5963L3.08374 8.0325C3.10585 7.88473 3.18017 7.74978 3.29322 7.65209C3.40627 7.5544 3.55058 7.50045 3.69999 7.5H5.74999V9.375C5.74999 9.54076 5.81584 9.69973 5.93305 9.81694C6.05026 9.93415 6.20923 10 6.37499 10C6.54075 10 6.69972 9.93415 6.81693 9.81694C6.93414 9.69973 6.99999 9.54076 6.99999 9.375V7.5H12Z" fill="white"/>
</svg>
