<svg width="16" height="16" viewBox="0 0 16 16" fill="none" xmlns="http://www.w3.org/2000/svg">
<g clip-path="url(#clip0_26_12203)">
<path d="M7.9999 2.748L7.2829 2.011C5.5999 0.281003 2.5139 0.878003 1.39989 3.053C0.876895 4.076 0.758895 5.553 1.71389 7.438C2.63389 9.253 4.5479 11.427 7.9999 13.795C11.4519 11.427 13.3649 9.253 14.2859 7.438C15.2409 5.552 15.1239 4.076 14.5999 3.053C13.4859 0.878003 10.3999 0.280003 8.7169 2.01L7.9999 2.748ZM7.9999 15C-7.33311 4.868 3.27889 -3.04 7.82389 1.143C7.88389 1.198 7.94289 1.255 7.9999 1.314C8.05632 1.25506 8.11503 1.19835 8.17589 1.144C12.7199 -3.042 23.3329 4.867 7.9999 15Z" fill="#212529"/>
</g>
<defs>
<clipPath id="clip0_26_12203">
<rect width="16" height="16" fill="white"/>
</clipPath>
</defs>
</svg>
